# xmcd
#
# Track frame offsets:
#	150
#	15151
#	27675
#	42435
#	58429
#	68996
#	90505
#	105612
#	118804
#	136343
#	154874
#	166895
#	180950
#	196780
#	209322
#	226305
#	248484
#
# Disc length: 3599 seconds
#
# Revision: 1
# Processed by: cddbd v1.5.2PL0 Copyright (c) Steve Scherf et al.
# Submitted via: audiograbber 1.83.01
#
DISCID=df0e0d11
DTITLE=Roger Cicero - Männersachen - Platin Edition
DYEAR=2006
DGENRE=Swing
TTITLE0=Zieh die Schuh aus
TTITLE1=Kein Mann für eine Frau
TTITLE2=Kompromisse
TTITLE3=Ich atme ein
TTITLE4=Schieß mich doch zum Mond
TTITLE5=Wenn sie dich fragt
TTITLE6=Fachmann in Sachen Anna
TTITLE7=Ich Idiot ließ dich gehen
TTITLE8=Mein guter Stern auf allen Wegen
TTITLE9=Murphys Gesetz
TTITLE10=Schön dass du da bist
TTITLE11=Das ganze Leben ist ein Zoo
TTITLE12=Du willst es doch auch
TTITLE13=So geil Berlin
TTITLE14=Wenn ich den Blues nicht hätt (Bluesette - Live)
TTITLE15=König von Deutschland (Live)
TTITLE16=Tausendmal berührt (Live)
EXTD=
EXTT0=
EXTT1=
EXTT2=
EXTT3=
EXTT4=
EXTT5=
EXTT6=
EXTT7=
EXTT8=
EXTT9=
EXTT10=
EXTT11=
EXTT12=
EXTT13=
EXTT14=
EXTT15=
EXTT16=
PLAYORDER=
